<?xml version="1.0" encoding="UTF-8" standalone="no"?>
<svg
   width="48px"
   height="48px"
   id="svg3832"
   version="1.1"
   sodipodi:docname="kdenlive-appimage_3.svg"
   inkscape:version="1.3.1 (91b66b0783, 2023-11-16)"
   xmlns:inkscape="http://www.inkscape.org/namespaces/inkscape"
   xmlns:sodipodi="http://sodipodi.sourceforge.net/DTD/sodipodi-0.dtd"
   xmlns:xlink="http://www.w3.org/1999/xlink"
   xmlns="http://www.w3.org/2000/svg"
   xmlns:svg="http://www.w3.org/2000/svg">
  <sodipodi:namedview
     id="namedview1"
     pagecolor="#ffffff"
     bordercolor="#000000"
     borderopacity="0.25"
     inkscape:showpageshadow="2"
     inkscape:pageopacity="0.0"
     inkscape:pagecheckerboard="0"
     inkscape:deskcolor="#d1d1d1"
     showgrid="false"
     inkscape:zoom="17.104167"
     inkscape:cx="24"
     inkscape:cy="28.151035"
     inkscape:window-width="2560"
     inkscape:window-height="1019"
     inkscape:window-x="0"
     inkscape:window-y="24"
     inkscape:window-maximized="1"
     inkscape:current-layer="svg3832" />
  <defs
     id="defs3834">
    <radialGradient
       cx="4.9929786"
       cy="43.5"
       r="2.5"
       id="radialGradient2873-966-168"
       gradientUnits="userSpaceOnUse"
       gradientTransform="matrix(2.003784,0,0,1.4,27.98813,-17.4)"
       xlink:href="#linearGradient3688-166-749" />
    <linearGradient
       id="linearGradient3688-166-749">
      <stop
         id="stop2883"
         style="stop-color:#181818;stop-opacity:1"
         offset="0" />
      <stop
         id="stop2885"
         style="stop-color:#181818;stop-opacity:0"
         offset="1" />
    </linearGradient>
    <radialGradient
       cx="4.9929786"
       cy="43.5"
       r="2.5"
       id="radialGradient2875-742-326"
       gradientUnits="userSpaceOnUse"
       gradientTransform="matrix(2.003784,0,0,1.4,-20.01187,-104.4)"
       xlink:href="#linearGradient3688-464-309" />
    <linearGradient
       id="linearGradient3688-464-309">
      <stop
         id="stop2889"
         style="stop-color:#181818;stop-opacity:1"
         offset="0" />
      <stop
         id="stop2891"
         style="stop-color:#181818;stop-opacity:0"
         offset="1" />
    </linearGradient>
    <linearGradient
       x1="25.058096"
       y1="47.027729"
       x2="25.058096"
       y2="39.999443"
       id="linearGradient2877-634-617"
       gradientUnits="userSpaceOnUse"
       xlink:href="#linearGradient3702-501-757" />
    <linearGradient
       id="linearGradient3702-501-757">
      <stop
         id="stop2895"
         style="stop-color:#181818;stop-opacity:0"
         offset="0" />
      <stop
         id="stop2897"
         style="stop-color:#181818;stop-opacity:1"
         offset="0.5" />
      <stop
         id="stop2899"
         style="stop-color:#181818;stop-opacity:0"
         offset="1" />
    </linearGradient>
  </defs>
  <rect
     style="fill:#ffffff;fill-opacity:1;stroke:#000000;stroke-width:1.19803;stroke-linecap:round;stroke-linejoin:round;stroke-miterlimit:4;stroke-dasharray:none;stroke-dashoffset:0;stroke-opacity:1"
     id="rect5505"
     y="0.70868802"
     x="0.66587758"
     ry="2.674031"
     rx="2.6743956"
     height="46.719151"
     width="46.725525" />
  <path
     style="opacity:0;fill:#000000;fill-opacity:1;fill-rule:nonzero;stroke:none;stroke-width:1.00178742;marker:none;visibility:visible;display:inline;overflow:visible;enable-background:accumulate"
     id="path4294-1"
     d="m 21,6.9687498 a 2.0165107,2.0165107 0 0 0 -2.03125,2.03125 l 0,3.9687502 -1.15625,0 a 2.0165107,2.0165107 0 0 0 -1.5,3.375 l 5.0625,5.75 c -0.06312,0.110777 -0.178724,0.246032 -0.21875,0.34375 -0.195898,0.478256 -0.25,0.83653 -0.25,1.21875 l 0,0.125 L 20.8125,23.6875 C 20.534322,23.409323 20.213169,23.162739 19.71875,22.96875 19.47154,22.87176 19.185456,22.791748 18.75,22.8125 c -0.435456,0.02075 -1.054055,0.210302 -1.46875,0.625 L 15.75,24.96875 c -0.414689,0.414689 -0.604245,1.033294 -0.625,1.46875 -0.02075,0.435456 0.05925,0.721537 0.15625,0.96875 C 15.475241,27.900677 15.721817,28.221821 16,28.5 l 0.09375,0.09375 -0.125,0 c -0.382218,0 -0.740493,0.0541 -1.21875,0.25 -0.239128,0.09795 -0.538285,0.214988 -0.84375,0.53125 -0.305465,0.316262 -0.625,0.914788 -0.625,1.53125 l 0,2.1875 c 0,0.616465 0.319536,1.214989 0.625,1.53125 0.305464,0.316261 0.604622,0.433301 0.84375,0.53125 0.478256,0.195898 0.83653,0.25 1.21875,0.25 l 0.125,0 L 16,35.5 c -0.278175,0.278176 -0.52476,0.599329 -0.71875,1.09375 -0.09699,0.24721 -0.177003,0.533292 -0.15625,0.96875 0.02075,0.435458 0.210304,1.054058 0.625,1.46875 l 1.53125,1.53125 c 0.414691,0.414697 1.033292,0.604245 1.46875,0.625 0.435458,0.02076 0.721537,-0.05926 0.96875,-0.15625 0.494425,-0.19399 0.81557,-0.440568 1.09375,-0.71875 l 0.09375,-0.09375 0,0.125 c 0,0.38222 0.0541,0.740495 0.25,1.21875 0.09795,0.239127 0.214989,0.538285 0.53125,0.84375 0.316261,0.305465 0.914783,0.625 1.53125,0.625 l 2.1875,0 c 0.616466,0 1.214989,-0.319534 1.53125,-0.625 0.316261,-0.305466 0.433302,-0.604622 0.53125,-0.84375 0.195896,-0.478255 0.25,-0.836532 0.25,-1.21875 l 0,-0.125 0.09375,0.09375 c 0.278176,0.278175 0.599329,0.52476 1.09375,0.71875 0.24721,0.09699 0.533292,0.177003 0.96875,0.15625 0.435458,-0.02075 1.054058,-0.210304 1.46875,-0.625 L 32.875,39.03125 C 33.289697,38.616559 33.479245,37.997958 33.5,37.5625 33.52076,37.127042 33.44074,36.840963 33.34375,36.59375 33.14976,36.099325 32.903182,35.77818 32.625,35.5 l -0.09375,-0.09375 0.125,0 c 0.38222,0 0.740494,-0.0541 1.21875,-0.25 0.239128,-0.09795 0.538286,-0.214988 0.84375,-0.53125 0.305464,-0.316262 0.625,-0.914787 0.625,-1.53125 l 0,-2.1875 c 0,-0.61646 -0.319535,-1.214987 -0.625,-1.53125 -0.305465,-0.316263 -0.604621,-0.433301 -0.84375,-0.53125 -0.478257,-0.195898 -0.836532,-0.25 -1.21875,-0.25 l -0.125,0 L 32.625,28.5 c 0.278177,-0.278177 0.52476,-0.599329 0.71875,-1.09375 C 33.44074,27.15904 33.520753,26.872957 33.5,26.4375 33.47925,26.002043 33.289697,25.383443 32.875,24.96875 L 31.34375,23.4375 c -0.414688,-0.414694 -1.03329,-0.604245 -1.46875,-0.625 -0.43546,-0.02076 -0.721537,0.05925 -0.96875,0.15625 -0.494426,0.193991 -0.815572,0.44057 -1.09375,0.71875 l -0.09375,0.09375 0,-0.125 c 0,-0.382218 -0.0541,-0.740493 -0.25,-1.21875 -0.09112,-0.22245 -0.228127,-0.500183 -0.5,-0.78125 l 4.71875,-5.3125 a 2.0165107,2.0165107 0 0 0 -1.5,-3.375 l -1.15625,0 0,-3.9687502 A 2.0165107,2.0165107 0 0 0 27,6.9687498 l -6,0 z M 24.3125,31.25 c 0.427097,0 0.75,0.322904 0.75,0.75 0,0.427096 -0.322903,0.75 -0.75,0.75 -0.427094,0 -0.75,-0.322906 -0.75,-0.75 0,-0.427094 0.322906,-0.75 0.75,-0.75 z" />
  <path
     style="opacity:0;fill:#000000;fill-opacity:1;fill-rule:nonzero;stroke:none;stroke-width:1.00178742;marker:none;visibility:visible;display:inline;overflow:visible;enable-background:accumulate;stroke-opacity:0"
     id="path4294"
     d="m 20.90625,8.0312498 a 0.96385067,0.96385067 0 0 0 -0.875,0.96875 l 0,5.0312502 -2.21875,0 A 0.96385067,0.96385067 0 0 0 17.09375,15.625 l 5.78125,6.53125 c -0.158814,0.0616 -0.341836,0.0951 -0.4375,0.1875 -0.169161,0.163386 -0.252971,0.323419 -0.3125,0.46875 -0.119058,0.290663 -0.15625,0.566746 -0.15625,0.84375 l 0,1.65625 C 21.718163,25.40233 21.485871,25.509772 21.25,25.625 l -1.1875,-1.1875 c -0.199651,-0.19965 -0.421433,-0.352095 -0.71875,-0.46875 -0.148659,-0.05833 -0.329673,-0.104846 -0.5625,-0.09375 -0.232827,0.0111 -0.53583,0.09833 -0.75,0.3125 L 16.5,25.71875 c -0.214168,0.214168 -0.301403,0.517173 -0.3125,0.75 -0.0111,0.232827 0.03542,0.41384 0.09375,0.5625 0.116655,0.297321 0.269096,0.519099 0.46875,0.71875 l 1.1875,1.1875 c -0.115228,0.235871 -0.222668,0.468163 -0.3125,0.71875 l -1.65625,0 c -0.277003,0 -0.553087,0.03719 -0.84375,0.15625 -0.145332,0.05953 -0.305363,0.143338 -0.46875,0.3125 -0.163387,0.169162 -0.3125,0.46403 -0.3125,0.78125 l 0,2.1875 c 0,0.317221 0.149114,0.612089 0.3125,0.78125 0.163386,0.169161 0.323419,0.252971 0.46875,0.3125 0.290663,0.119058 0.566746,0.15625 0.84375,0.15625 l 1.65625,0 c 0.08983,0.250587 0.197272,0.482879 0.3125,0.71875 L 16.75,36.25 c -0.199649,0.19965 -0.352095,0.421432 -0.46875,0.71875 -0.05833,0.148659 -0.104846,0.329672 -0.09375,0.5625 0.0111,0.232828 0.09833,0.535831 0.3125,0.75 l 1.53125,1.53125 c 0.214168,0.214172 0.517172,0.301403 0.75,0.3125 0.232828,0.0111 0.41384,-0.03542 0.5625,-0.09375 0.29732,-0.116655 0.519098,-0.269096 0.71875,-0.46875 L 21.25,38.375 c 0.235871,0.115228 0.468164,0.222668 0.71875,0.3125 l 0,1.65625 c 0,0.277003 0.03719,0.553087 0.15625,0.84375 0.05953,0.145331 0.143339,0.305364 0.3125,0.46875 0.169161,0.163386 0.464028,0.3125 0.78125,0.3125 l 2.1875,0 c 0.317221,0 0.612089,-0.149113 0.78125,-0.3125 0.169161,-0.163387 0.252971,-0.323419 0.3125,-0.46875 0.119057,-0.290663 0.15625,-0.566748 0.15625,-0.84375 l 0,-1.65625 c 0.250586,-0.08983 0.482879,-0.197272 0.71875,-0.3125 l 1.1875,1.1875 c 0.19965,0.199649 0.421432,0.352095 0.71875,0.46875 0.148659,0.05833 0.329672,0.104846 0.5625,0.09375 0.232828,-0.0111 0.535831,-0.09833 0.75,-0.3125 L 32.125,38.28125 c 0.214172,-0.214168 0.301403,-0.517172 0.3125,-0.75 0.0111,-0.232828 -0.03542,-0.41384 -0.09375,-0.5625 C 32.227095,36.67143 32.074654,36.449652 31.875,36.25 L 30.6875,35.0625 C 30.802728,34.82663 30.910168,34.594337 31,34.34375 l 1.65625,0 c 0.277004,0 0.553087,-0.03719 0.84375,-0.15625 0.145332,-0.05953 0.305364,-0.143339 0.46875,-0.3125 0.163386,-0.169161 0.3125,-0.46403 0.3125,-0.78125 l 0,-2.1875 c 0,-0.317219 -0.149114,-0.612088 -0.3125,-0.78125 C 33.805364,29.955838 33.645332,29.872029 33.5,29.8125 33.209336,29.693442 32.933253,29.65625 32.65625,29.65625 l -1.65625,0 C 30.91017,29.405663 30.802728,29.17337 30.6875,28.9375 L 31.875,27.75 c 0.19965,-0.19965 0.352095,-0.421432 0.46875,-0.71875 0.05833,-0.148659 0.104846,-0.329672 0.09375,-0.5625 -0.0111,-0.232828 -0.09833,-0.535831 -0.3125,-0.75 L 30.59375,24.1875 c -0.214167,-0.21417 -0.517171,-0.301403 -0.75,-0.3125 -0.232829,-0.0111 -0.41384,0.03542 -0.5625,0.09375 -0.29732,0.116656 -0.519099,0.269097 -0.71875,0.46875 L 27.375,25.625 c -0.235871,-0.115228 -0.468163,-0.222668 -0.71875,-0.3125 l 0,-1.65625 c 0,-0.277003 -0.03719,-0.553087 -0.15625,-0.84375 -0.05953,-0.145332 -0.143338,-0.305363 -0.3125,-0.46875 -0.169162,-0.163387 -0.46403,-0.3125 -0.78125,-0.3125 l -0.15625,0 5.65625,-6.40625 A 0.96385067,0.96385067 0 0 0 30.1875,14.03125 l -2.21875,0 0,-5.0312502 A 0.96385067,0.96385067 0 0 0 27,8.0312498 l -6,0 a 0.96385067,0.96385067 0 0 0 -0.09375,0 z M 24.3125,30.1875 c 1.002113,0 1.8125,0.810388 1.8125,1.8125 0,1.002112 -0.810387,1.8125 -1.8125,1.8125 C 23.31039,33.8125 22.5,33.002111 22.5,32 c 0,-1.002111 0.81039,-1.8125 1.8125,-1.8125 z" />
  <path
     style="display:inline;overflow:visible;visibility:visible;fill:#000000;fill-opacity:1;stroke:#000000;stroke-width:1;stroke-linecap:butt;stroke-linejoin:miter;stroke-miterlimit:4;stroke-dasharray:none;stroke-dashoffset:0;stroke-opacity:1;marker:none"
     id="path2777"
     d="m 29.761389,10.723271 -5.693905,6.60067 -5.821662,-6.562145 h 2.932162 V 3.8269955 h 5.779 v 6.9348005 l 2.804405,-0.03852 z" />
  <path
     style="display:inline;overflow:visible;visibility:visible;fill:#000000;fill-opacity:1;stroke:#000000;stroke-width:1;stroke-dasharray:none;stroke-opacity:1;marker:none"
     id="path4243"
     d="m 22.734607,19.542036 c -0.01686,0.07782 -0.04519,0.144913 -0.04519,0.271156 v 3.299067 a 0.69684196,0.69684196 0 0 1 -0.542312,0.677891 c -0.92333,0.210249 -1.790966,0.58875 -2.575984,1.084624 a 0.69684196,0.69684196 0 0 1 -0.858661,-0.09039 l -2.35002,-2.35002 c -0.07715,-0.07715 -0.120828,-0.09592 -0.180771,-0.135578 l -1.762515,1.762515 c 0.03965,0.05994 0.05843,0.103618 0.135578,0.180771 l 2.35002,2.35002 a 0.69684196,0.69684196 0 0 1 0.09038,0.858661 c -0.495873,0.785017 -0.874374,1.652653 -1.084624,2.575984 a 0.69684196,0.69684196 0 0 1 -0.677891,0.542312 h -3.299064 c -0.126236,0 -0.193345,0.02833 -0.271156,0.04519 v 2.530791 c 0.07782,0.01686 0.144913,0.04519 0.271156,0.04519 h 3.299066 a 0.69684196,0.69684196 0 0 1 0.677891,0.542313 c 0.21025,0.92333 0.588751,1.790965 1.084624,2.575983 a 0.69684196,0.69684196 0 0 1 -0.09038,0.858661 l -2.35002,2.350021 c -0.07715,0.07715 -0.09592,0.120827 -0.135578,0.18077 l 1.762515,1.762515 c 0.05994,-0.03965 0.103618,-0.05842 0.180771,-0.135578 l 2.35002,-2.35002 a 0.69684196,0.69684196 0 0 1 0.858661,-0.09039 c 0.785018,0.495873 1.652651,0.874372 2.575984,1.084625 a 0.69684196,0.69684196 0 0 1 0.542312,0.67789 v 3.299067 c 0,0.126236 0.02833,0.193345 0.04519,0.271156 H 25.2654 c 0.01686,-0.0778 0.04519,-0.144915 0.04519,-0.271156 V 40.64701 a 0.69684196,0.69684196 0 0 1 0.542313,-0.67789 c 0.923332,-0.210253 1.790965,-0.588752 2.575983,-1.084625 a 0.69684196,0.69684196 0 0 1 0.858661,0.09039 l 2.350021,2.35002 c 0.07715,0.07715 0.120827,0.09593 0.18077,0.135578 l 1.762515,-1.762515 c -0.03965,-0.05994 -0.05842,-0.103617 -0.135578,-0.18077 l -2.35002,-2.350021 a 0.69684196,0.69684196 0 0 1 -0.09039,-0.858661 c 0.495873,-0.785019 0.874374,-1.652654 1.084625,-2.575983 a 0.69684196,0.69684196 0 0 1 0.67789,-0.542313 h 3.299067 c 0.126236,0 0.193345,-0.02833 0.271156,-0.04519 v -2.530791 c -0.0778,-0.01686 -0.144912,-0.04519 -0.271156,-0.04519 H 32.76738 a 0.69684196,0.69684196 0 0 1 -0.67789,-0.542312 c -0.210246,-0.923325 -0.588749,-1.790962 -1.08462,-2.575979 a 0.69684196,0.69684196 0 0 1 0.09039,-0.858661 l 2.35002,-2.35002 c 0.07715,-0.07715 0.09593,-0.120828 0.135578,-0.180771 l -1.76252,-1.762515 c -0.05994,0.03965 -0.103617,0.05842 -0.18077,0.135578 l -2.350021,2.35002 a 0.69684196,0.69684196 0 0 1 -0.858661,0.09039 C 27.643868,24.378905 26.776232,24.000404 25.852903,23.790155 A 0.69684196,0.69684196 0 0 1 25.31059,23.112264 v -3.299067 c 0,-0.12625 -0.02833,-0.193345 -0.04519,-0.271156 z m 1.265395,7.637566 c 2.591283,0 4.70004,2.108759 4.70004,4.70004 0,2.591281 -2.108757,4.70004 -4.70004,4.70004 -2.59128,0 -4.70004,-2.108759 -4.70004,-4.70004 0,-2.591281 2.10876,-4.70004 4.70004,-4.70004 z" />
</svg>
