<?xml version="1.0" encoding="UTF-8" standalone="no"?>
<svg
   viewBox="0 0 22 22"
   version="1.1"
   id="svg1"
   sodipodi:docname="kdenlive-tag-add.svg"
   inkscape:version="1.3.2 (091e20ef0f, 2023-11-25)"
   xmlns:inkscape="http://www.inkscape.org/namespaces/inkscape"
   xmlns:sodipodi="http://sodipodi.sourceforge.net/DTD/sodipodi-0.dtd"
   xmlns="http://www.w3.org/2000/svg"
   xmlns:svg="http://www.w3.org/2000/svg">
  <sodipodi:namedview
     id="namedview1"
     pagecolor="#ffffff"
     bordercolor="#000000"
     borderopacity="0.25"
     inkscape:showpageshadow="2"
     inkscape:pageopacity="0.0"
     inkscape:pagecheckerboard="0"
     inkscape:deskcolor="#d1d1d1"
     inkscape:zoom="1"
     inkscape:cx="5.5"
     inkscape:cy="14.5"
     inkscape:window-width="1920"
     inkscape:window-height="1043"
     inkscape:window-x="2560"
     inkscape:window-y="0"
     inkscape:window-maximized="1"
     inkscape:current-layer="svg1" />
  <defs
     id="defs3051">
    <style
       type="text/css"
       id="current-color-scheme">
      .ColorScheme-Text {
        color:#232629;
      }
      .ColorScheme-Highlight {
        color:#3daee9;
      }
      </style>
  </defs>
  <g
     transform="matrix(1, 0, 0, 1, -1.0935, 1.036)"
     id="g1">
    <path
       id="polygon1"
       style="stroke:#0b0000;stroke-width:0px;paint-order:stroke"
       d="M 11.175531 2.8917344 L 4.8845156 2.9698594 L 4.9626406 9.260875 L 13.023188 17.010875 L 13.023188 10.592906 L 19.259516 10.592906 L 19.259516 10.635875 L 19.302484 10.590953 L 11.175531 2.8917344 z M 13.042719 17.028453 L 13.050531 17.036266 L 13.058344 17.028453 L 13.042719 17.028453 z " />
    <path
       id="ellipse1"
       style="fill:#ffffff;stroke-width:0px;paint-order:stroke"
       d="m 9.1839999,5.5289998 a 1.544,1.544 0 0 1 -1.544,1.544 1.544,1.544 0 0 1 -1.5440001,-1.544 1.544,1.544 0 0 1 1.5440001,-1.544 1.544,1.544 0 0 1 1.544,1.544 z" />
  </g>
  <text
     xml:space="preserve"
     style="font-size:8px;fill:#000000;fill-opacity:1;stroke:#000000;stroke-linecap:square;stroke-linejoin:miter;stroke-opacity:1"
     x="13.222672"
     y="17.977451"
     id="text1"><tspan
       sodipodi:role="line"
       id="tspan1"
       x="13.222672"
       y="17.977451"
       style="font-size:8px;fill:#000000;fill-opacity:1;stroke:#000000;stroke-opacity:1">+</tspan></text>
</svg>
